<svg width="20" height="10" viewBox="0 0 20 10" fill="none" xmlns="http://www.w3.org/2000/svg">
<path d="M6.17126 9.895C6.11706 9.91988 6.0568 9.92848 5.9978 9.91974C5.9388 9.911 5.88362 9.8853 5.83896 9.84577L0.56511 5.23038C0.53237 5.20151 0.506148 5.166 0.488187 5.12621C0.470226 5.08642 0.460938 5.04327 0.460938 4.99962C0.460938 4.95596 0.470226 4.91281 0.488187 4.87302C0.506148 4.83323 0.53237 4.79772 0.56511 4.76885L5.83896 0.153462C5.88362 0.113932 5.9388 0.0882344 5.9978 0.0794941C6.0568 0.0707538 6.11706 0.0793479 6.17126 0.104231C6.22467 0.128948 6.26987 0.168464 6.3015 0.218093C6.33314 0.267721 6.34987 0.32538 6.34972 0.384231V2.44885L9.27588 3.08885L3.27896 4.39962C3.143 4.4306 3.02159 4.50684 2.93463 4.61585C2.84767 4.72486 2.80031 4.86017 2.80031 4.99962C2.80031 5.13906 2.84767 5.27437 2.93463 5.38338C3.02159 5.49239 3.143 5.56863 3.27896 5.59962L9.27588 6.91038L6.34972 7.54731V9.615C6.34987 9.67385 6.33314 9.73151 6.3015 9.78114C6.26987 9.83077 6.22467 9.87028 6.17126 9.895ZM13.8297 0.104231C13.7757 0.128498 13.7299 0.16782 13.6977 0.217483C13.6655 0.267147 13.6483 0.325043 13.6482 0.384231V2.45192L3.34357 4.69192C3.26197 4.69192 3.1837 4.72434 3.126 4.78204C3.0683 4.83975 3.03588 4.91801 3.03588 4.99962C3.03588 5.08122 3.0683 5.15948 3.126 5.21719C3.1837 5.27489 3.26197 5.30731 3.34357 5.30731L13.6482 7.55346V9.615C13.6483 9.67413 13.6654 9.73199 13.6975 9.78165C13.7296 9.83131 13.7753 9.87067 13.8292 9.89501C13.8831 9.91936 13.9428 9.92766 14.0013 9.91893C14.0598 9.9102 14.1145 9.8848 14.159 9.84577L19.4328 5.23038C19.4655 5.20151 19.4918 5.166 19.5097 5.12621C19.5277 5.08642 19.537 5.04327 19.537 4.99962C19.537 4.95596 19.5277 4.91281 19.5097 4.87302C19.4918 4.83323 19.4655 4.79772 19.4328 4.76885L14.159 0.153462C14.1146 0.114542 14.0599 0.0892073 14.0016 0.0804783C13.9432 0.0717493 13.8835 0.0799946 13.8297 0.104231Z" fill="white"/>
</svg>
